<svg width="612" height="612" xmlns="http://www.w3.org/2000/svg">

 <g>
  <title>background</title>
  <rect fill="none" id="canvas_background" height="402" width="582" y="-1" x="-1"/>
 </g>
 <g>
  <title>Layer 1</title>
  <g id="svg_1">
   <path id="svg_2" d="m612,510c0,56.099976 -45.900024,102 -102,102l-408,0c-56.099998,0 -102,-45.900024 -102,-102l0,-408c0,-56.099998 45.900002,-102 102,-102l408,0c56.099976,0 102,45.900002 102,102l0,408z" fill="#ff5656"/>
   <polyline stroke-linecap="round" id="svg_4" points="207.5,166.9499969482422 207.5,168.9499969482422 207.5,170.9499969482422 204.5,174.9499969482422 201.5,178.9499969482422 200.5,180.9499969482422 196.5,185.9499969482422 194.5,189.9499969482422 190.5,194.9499969482422 186.5,200.9499969482422 185.5,204.9499969482422 185.5,206.9499969482422 183.5,211.9499969482422 183.5,213.9499969482422 183.5,216.9499969482422 183.5,218.9499969482422 183.5,220.9499969482422 183.5,223.9499969482422 183.5,224.9499969482422 184.5,227.9499969482422 186.5,229.9499969482422 186.5,230.9499969482422 187.5,230.9499969482422 187.5,231.9499969482422 188.5,231.9499969482422 189.5,231.9499969482422 191.5,231.9499969482422 192.5,231.9499969482422 195.5,231.9499969482422 196.5,231.9499969482422 199.5,231.9499969482422 202.5,231.9499969482422 204.5,231.9499969482422 207.5,231.9499969482422 209.5,231.9499969482422 211.5,231.9499969482422 215.5,231.9499969482422 218.5,230.9499969482422 220.5,228.9499969482422 " opacity="0.5" fill-opacity="null" stroke-opacity="null" stroke-width="null" stroke="null" fill="none"/>
   <polyline stroke-linecap="round" id="svg_5" points="211.5,177.9499969482422 210.5,177.9499969482422 211.5,176.9499969482422 216.5,171.9499969482422 220.5,170.9499969482422 225.5,169.9499969482422 233.5,166.9499969482422 238.5,165.9499969482422 249.5,164.9499969482422 260.5,162.9499969482422 271.5,162.9499969482422 282.5,162.9499969482422 290.5,162.9499969482422 300.5,162.9499969482422 307.5,162.9499969482422 310.5,162.9499969482422 313.5,162.9499969482422 314.5,162.9499969482422 " opacity="0.5" fill-opacity="null" stroke-opacity="null" stroke-width="null" stroke="null" fill="none"/>
   <text transform="matrix(2.02482, 0, 0, 2.01425, -167.512, -127.621)" font-weight="bold" xml:space="preserve" text-anchor="start" font-family="Euphoria, sans-serif" font-size="250" id="svg_6" y="307.773351" x="150.631901" stroke-opacity="null" stroke-width="0" stroke="null" fill="#ffffff">V</text>
  </g>
 </g>
</svg>